<svg width="19" height="19" viewBox="0 0 19 19" fill="none" xmlns="http://www.w3.org/2000/svg">
<rect width="19" height="19" rx="9.5" fill="#F9F6E6"/>
<path d="M7.11847 14.3257L12.2644 9.17972L9.8202 6.73549L4.67424 11.8814C4.6034 11.9524 4.55308 12.0412 4.52861 12.1384L3.95825 15.0417L6.86098 14.4713C6.95844 14.4469 7.04759 14.3966 7.11847 14.3257ZM13.9257 7.51849C14.1333 7.3108 14.2499 7.02916 14.2499 6.73549C14.2499 6.44183 14.1333 6.16018 13.9257 5.9525L13.0474 5.07426C12.8397 4.86664 12.5581 4.75 12.2644 4.75C11.9708 4.75 11.6891 4.86664 11.4814 5.07426L10.6032 5.9525L13.0474 8.39673L13.9257 7.51849Z" fill="black"/>
</svg>
