<svg width="256" height="177" viewBox="0 0 256 177" fill="none" xmlns="http://www.w3.org/2000/svg">
<rect width="256" height="177" rx="5" fill="#B6B6B6"/>
<path d="M68.7229 87.804H66.0169L66.4369 87.39L64.6129 96H63.8689L65.6989 87.39L65.9449 87.804H63.2449L63.3829 87.15H68.8669L68.7229 87.804ZM69.9899 96.108C69.5339 96.108 69.1679 96.028 68.8919 95.868C68.6199 95.708 68.4219 95.498 68.2979 95.238C68.1779 94.978 68.1179 94.704 68.1179 94.416C68.1179 94.212 68.1359 94.002 68.1719 93.786C68.2079 93.566 68.2599 93.292 68.3279 92.964L69.0359 89.628H69.7859L69.0959 92.88C69.0279 93.192 68.9759 93.456 68.9399 93.672C68.9039 93.888 68.8859 94.084 68.8859 94.26C68.8859 94.592 68.9899 94.87 69.1979 95.094C69.4099 95.314 69.7459 95.424 70.2059 95.424C70.5979 95.424 70.9659 95.316 71.3099 95.1C71.6579 94.884 71.9519 94.61 72.1919 94.278C72.4359 93.942 72.5939 93.598 72.6659 93.246L73.1279 93.432C73.0599 93.752 72.9339 94.07 72.7499 94.386C72.5659 94.698 72.3359 94.986 72.0599 95.25C71.7839 95.51 71.4699 95.718 71.1179 95.874C70.7699 96.03 70.3939 96.108 69.9899 96.108ZM72.0779 96L73.4339 89.628H74.1719L72.8219 96H72.0779ZM74.7875 96L76.1375 89.628H76.8815L76.4855 91.506L76.2035 91.422C76.2715 91.222 76.3755 91.014 76.5155 90.798C76.6555 90.578 76.8315 90.372 77.0435 90.18C77.2555 89.988 77.5015 89.834 77.7815 89.718C78.0655 89.598 78.3835 89.538 78.7355 89.538C78.9875 89.538 79.1895 89.56 79.3415 89.604C79.4975 89.648 79.5915 89.682 79.6235 89.706L79.2695 90.426C79.2335 90.398 79.1575 90.362 79.0415 90.318C78.9295 90.274 78.7575 90.252 78.5255 90.252C78.1895 90.252 77.8935 90.318 77.6375 90.45C77.3815 90.578 77.1635 90.746 76.9835 90.954C76.8035 91.162 76.6575 91.384 76.5455 91.62C76.4375 91.856 76.3615 92.08 76.3175 92.292L75.5255 96H74.7875ZM84.0998 96L84.8318 92.598C84.8958 92.294 84.9418 92.054 84.9698 91.878C85.0018 91.698 85.0178 91.534 85.0178 91.386C85.0178 91.03 84.8938 90.75 84.6458 90.546C84.3978 90.342 84.0318 90.24 83.5478 90.24C83.1918 90.24 82.8358 90.33 82.4798 90.51C82.1278 90.686 81.8218 90.926 81.5618 91.23C81.3018 91.534 81.1318 91.876 81.0518 92.256L80.6078 92.088C80.6878 91.72 80.8338 91.382 81.0458 91.074C81.2618 90.762 81.5198 90.492 81.8198 90.264C82.1238 90.036 82.4478 89.858 82.7918 89.73C83.1398 89.602 83.4858 89.538 83.8298 89.538C84.4338 89.538 84.9138 89.678 85.2698 89.958C85.6258 90.238 85.8038 90.636 85.8038 91.152C85.8038 91.348 85.7818 91.57 85.7378 91.818C85.6938 92.062 85.6358 92.342 85.5638 92.658L84.8378 96H84.0998ZM79.5158 96L80.8718 89.628H81.6158L80.2598 96H79.5158ZM92.7986 96.114C92.2546 96.114 91.7866 96.006 91.3946 95.79C91.0026 95.57 90.7006 95.266 90.4886 94.878C90.2766 94.49 90.1706 94.038 90.1706 93.522C90.1706 92.962 90.2666 92.44 90.4586 91.956C90.6546 91.472 90.9246 91.05 91.2686 90.69C91.6166 90.326 92.0226 90.044 92.4866 89.844C92.9546 89.64 93.4606 89.538 94.0046 89.538C94.5526 89.538 95.0206 89.65 95.4086 89.874C95.8006 90.098 96.1006 90.404 96.3086 90.792C96.5166 91.176 96.6206 91.612 96.6206 92.1C96.6206 92.692 96.5206 93.234 96.3206 93.726C96.1246 94.214 95.8526 94.636 95.5046 94.992C95.1566 95.348 94.7506 95.624 94.2866 95.82C93.8266 96.016 93.3306 96.114 92.7986 96.114ZM92.8526 95.448C93.4166 95.448 93.9246 95.312 94.3766 95.04C94.8326 94.764 95.1946 94.382 95.4626 93.894C95.7306 93.402 95.8646 92.83 95.8646 92.178C95.8646 91.778 95.7906 91.432 95.6426 91.14C95.4946 90.844 95.2786 90.614 94.9946 90.45C94.7146 90.286 94.3686 90.204 93.9566 90.204C93.5166 90.204 93.1106 90.288 92.7386 90.456C92.3706 90.62 92.0506 90.85 91.7786 91.146C91.5106 91.442 91.3006 91.786 91.1486 92.178C91.0006 92.57 90.9266 92.994 90.9266 93.45C90.9266 94.066 91.0926 94.554 91.4246 94.914C91.7606 95.27 92.2366 95.448 92.8526 95.448ZM102.252 96L102.984 92.598C103.048 92.294 103.094 92.054 103.122 91.878C103.154 91.698 103.17 91.534 103.17 91.386C103.17 91.03 103.046 90.75 102.798 90.546C102.55 90.342 102.184 90.24 101.7 90.24C101.344 90.24 100.988 90.33 100.632 90.51C100.28 90.686 99.9742 90.926 99.7142 91.23C99.4542 91.534 99.2842 91.876 99.2042 92.256L98.7602 92.088C98.8402 91.72 98.9862 91.382 99.1982 91.074C99.4142 90.762 99.6722 90.492 99.9722 90.264C100.276 90.036 100.6 89.858 100.944 89.73C101.292 89.602 101.638 89.538 101.982 89.538C102.586 89.538 103.066 89.678 103.422 89.958C103.778 90.238 103.956 90.636 103.956 91.152C103.956 91.348 103.934 91.57 103.89 91.818C103.846 92.062 103.788 92.342 103.716 92.658L102.99 96H102.252ZM97.6682 96L99.0242 89.628H99.7682L98.4122 96H97.6682ZM107.453 98.664C107.305 98.664 107.169 98.654 107.045 98.634C106.921 98.618 106.847 98.604 106.823 98.592L106.961 97.926C107.005 97.954 107.085 97.976 107.201 97.992C107.313 98.012 107.423 98.022 107.531 98.022C107.807 98.022 108.051 97.954 108.263 97.818C108.479 97.682 108.669 97.51 108.833 97.302C108.997 97.094 109.139 96.88 109.259 96.66L109.613 96.018L108.749 89.628H109.505L110.231 95.328H110.099L113.177 89.628H113.975L110.087 96.63C109.895 96.978 109.683 97.306 109.451 97.614C109.223 97.926 108.949 98.178 108.629 98.37C108.309 98.566 107.917 98.664 107.453 98.664ZM116.787 96.114C116.243 96.114 115.775 96.006 115.383 95.79C114.991 95.57 114.689 95.266 114.477 94.878C114.265 94.49 114.159 94.038 114.159 93.522C114.159 92.962 114.255 92.44 114.447 91.956C114.643 91.472 114.913 91.05 115.257 90.69C115.605 90.326 116.011 90.044 116.475 89.844C116.943 89.64 117.449 89.538 117.993 89.538C118.541 89.538 119.009 89.65 119.397 89.874C119.789 90.098 120.089 90.404 120.297 90.792C120.505 91.176 120.609 91.612 120.609 92.1C120.609 92.692 120.509 93.234 120.309 93.726C120.113 94.214 119.841 94.636 119.493 94.992C119.145 95.348 118.739 95.624 118.275 95.82C117.815 96.016 117.319 96.114 116.787 96.114ZM116.841 95.448C117.405 95.448 117.913 95.312 118.365 95.04C118.821 94.764 119.183 94.382 119.451 93.894C119.719 93.402 119.853 92.83 119.853 92.178C119.853 91.778 119.779 91.432 119.631 91.14C119.483 90.844 119.267 90.614 118.983 90.45C118.703 90.286 118.357 90.204 117.945 90.204C117.505 90.204 117.099 90.288 116.727 90.456C116.359 90.62 116.039 90.85 115.767 91.146C115.499 91.442 115.289 91.786 115.137 92.178C114.989 92.57 114.915 92.994 114.915 93.45C114.915 94.066 115.081 94.554 115.413 94.914C115.749 95.27 116.225 95.448 116.841 95.448ZM123.966 96.108C123.51 96.108 123.144 96.028 122.868 95.868C122.596 95.708 122.398 95.498 122.274 95.238C122.154 94.978 122.094 94.704 122.094 94.416C122.094 94.212 122.112 94.002 122.148 93.786C122.184 93.566 122.236 93.292 122.304 92.964L123.012 89.628H123.762L123.072 92.88C123.004 93.192 122.952 93.456 122.916 93.672C122.88 93.888 122.862 94.084 122.862 94.26C122.862 94.592 122.966 94.87 123.174 95.094C123.386 95.314 123.722 95.424 124.182 95.424C124.574 95.424 124.942 95.316 125.286 95.1C125.634 94.884 125.928 94.61 126.168 94.278C126.412 93.942 126.57 93.598 126.642 93.246L127.104 93.432C127.036 93.752 126.91 94.07 126.726 94.386C126.542 94.698 126.312 94.986 126.036 95.25C125.76 95.51 125.446 95.718 125.094 95.874C124.746 96.03 124.37 96.108 123.966 96.108ZM126.054 96L127.41 89.628H128.148L126.798 96H126.054ZM128.764 96L130.114 89.628H130.858L130.462 91.506L130.18 91.422C130.248 91.222 130.352 91.014 130.492 90.798C130.632 90.578 130.808 90.372 131.02 90.18C131.232 89.988 131.478 89.834 131.758 89.718C132.042 89.598 132.36 89.538 132.712 89.538C132.964 89.538 133.166 89.56 133.318 89.604C133.474 89.648 133.568 89.682 133.6 89.706L133.246 90.426C133.21 90.398 133.134 90.362 133.018 90.318C132.906 90.274 132.734 90.252 132.502 90.252C132.166 90.252 131.87 90.318 131.614 90.45C131.358 90.578 131.14 90.746 130.96 90.954C130.78 91.162 130.634 91.384 130.522 91.62C130.414 91.856 130.338 92.08 130.294 92.292L129.502 96H128.764ZM137.254 93.126L137.398 92.46H142.558L142.408 92.67C142.428 92.586 142.446 92.488 142.462 92.376C142.478 92.26 142.486 92.134 142.486 91.998C142.486 91.666 142.418 91.366 142.282 91.098C142.15 90.826 141.948 90.61 141.676 90.45C141.404 90.29 141.058 90.21 140.638 90.21C140.186 90.21 139.772 90.294 139.396 90.462C139.024 90.63 138.7 90.864 138.424 91.164C138.152 91.46 137.94 91.806 137.788 92.202C137.64 92.594 137.566 93.018 137.566 93.474C137.566 93.862 137.636 94.204 137.776 94.5C137.92 94.796 138.138 95.026 138.43 95.19C138.722 95.354 139.09 95.436 139.534 95.436C139.906 95.436 140.236 95.392 140.524 95.304C140.816 95.212 141.064 95.092 141.268 94.944C141.476 94.796 141.642 94.64 141.766 94.476C141.894 94.308 141.982 94.15 142.03 94.002H142.78C142.72 94.238 142.6 94.48 142.42 94.728C142.244 94.972 142.012 95.2 141.724 95.412C141.436 95.624 141.098 95.796 140.71 95.928C140.326 96.056 139.898 96.12 139.426 96.12C138.882 96.12 138.416 96.01 138.028 95.79C137.644 95.566 137.35 95.258 137.146 94.866C136.946 94.47 136.846 94.014 136.846 93.498C136.846 92.942 136.944 92.426 137.14 91.95C137.34 91.47 137.616 91.05 137.968 90.69C138.324 90.326 138.736 90.044 139.204 89.844C139.672 89.64 140.174 89.538 140.71 89.538C141.246 89.538 141.698 89.65 142.066 89.874C142.438 90.094 142.72 90.394 142.912 90.774C143.104 91.154 143.2 91.582 143.2 92.058C143.2 92.226 143.184 92.41 143.152 92.61C143.124 92.81 143.09 92.982 143.05 93.126H137.254ZM146.385 92.574L146.235 92.868L144.585 89.628H145.395L146.913 92.64L146.499 92.454L149.067 89.628H149.919L146.769 93.024L146.961 92.676L148.617 96H147.801L146.271 92.94L146.643 93.15L143.961 96H143.115L146.385 92.574ZM152.365 96.096C152.213 96.096 152.067 96.08 151.927 96.048C151.787 96.02 151.661 95.968 151.549 95.892C151.441 95.816 151.355 95.712 151.291 95.58C151.231 95.448 151.201 95.282 151.201 95.082C151.201 94.942 151.215 94.788 151.243 94.62C151.275 94.448 151.317 94.246 151.369 94.014L152.161 90.282H150.631L150.769 89.628H151.903C152.003 89.628 152.081 89.622 152.137 89.61C152.193 89.598 152.237 89.576 152.269 89.544C152.301 89.508 152.327 89.454 152.347 89.382C152.367 89.31 152.391 89.214 152.419 89.094L152.743 87.57H153.487L153.049 89.628H155.089L154.951 90.282H152.911L152.167 93.768C152.111 94.028 152.067 94.248 152.035 94.428C152.003 94.604 151.987 94.752 151.987 94.872C151.987 95.048 152.025 95.188 152.101 95.292C152.181 95.392 152.315 95.442 152.503 95.442C152.623 95.442 152.745 95.432 152.869 95.412C152.997 95.388 153.091 95.364 153.151 95.34L153.019 95.994C152.951 96.018 152.861 96.04 152.749 96.06C152.637 96.084 152.509 96.096 152.365 96.096ZM155.688 93.126L155.832 92.46H160.992L160.842 92.67C160.862 92.586 160.88 92.488 160.896 92.376C160.912 92.26 160.92 92.134 160.92 91.998C160.92 91.666 160.852 91.366 160.716 91.098C160.584 90.826 160.382 90.61 160.11 90.45C159.838 90.29 159.492 90.21 159.072 90.21C158.62 90.21 158.206 90.294 157.83 90.462C157.458 90.63 157.134 90.864 156.858 91.164C156.586 91.46 156.374 91.806 156.222 92.202C156.074 92.594 156 93.018 156 93.474C156 93.862 156.07 94.204 156.21 94.5C156.354 94.796 156.572 95.026 156.864 95.19C157.156 95.354 157.524 95.436 157.968 95.436C158.34 95.436 158.67 95.392 158.958 95.304C159.25 95.212 159.498 95.092 159.702 94.944C159.91 94.796 160.076 94.64 160.2 94.476C160.328 94.308 160.416 94.15 160.464 94.002H161.214C161.154 94.238 161.034 94.48 160.854 94.728C160.678 94.972 160.446 95.2 160.158 95.412C159.87 95.624 159.532 95.796 159.144 95.928C158.76 96.056 158.332 96.12 157.86 96.12C157.316 96.12 156.85 96.01 156.462 95.79C156.078 95.566 155.784 95.258 155.58 94.866C155.38 94.47 155.28 94.014 155.28 93.498C155.28 92.942 155.378 92.426 155.574 91.95C155.774 91.47 156.05 91.05 156.402 90.69C156.758 90.326 157.17 90.044 157.638 89.844C158.106 89.64 158.608 89.538 159.144 89.538C159.68 89.538 160.132 89.65 160.5 89.874C160.872 90.094 161.154 90.394 161.346 90.774C161.538 91.154 161.634 91.582 161.634 92.058C161.634 92.226 161.618 92.41 161.586 92.61C161.558 92.81 161.524 92.982 161.484 93.126H155.688ZM167.233 96L167.965 92.598C168.029 92.294 168.075 92.054 168.103 91.878C168.135 91.698 168.151 91.534 168.151 91.386C168.151 91.03 168.027 90.75 167.779 90.546C167.531 90.342 167.165 90.24 166.681 90.24C166.325 90.24 165.969 90.33 165.613 90.51C165.261 90.686 164.955 90.926 164.695 91.23C164.435 91.534 164.265 91.876 164.185 92.256L163.741 92.088C163.821 91.72 163.967 91.382 164.179 91.074C164.395 90.762 164.653 90.492 164.953 90.264C165.257 90.036 165.581 89.858 165.925 89.73C166.273 89.602 166.619 89.538 166.963 89.538C167.567 89.538 168.047 89.678 168.403 89.958C168.759 90.238 168.937 90.636 168.937 91.152C168.937 91.348 168.915 91.57 168.871 91.818C168.827 92.062 168.769 92.342 168.697 92.658L167.971 96H167.233ZM162.649 96L164.005 89.628H164.749L163.393 96H162.649ZM172.313 96.114C171.965 96.114 171.649 96.078 171.365 96.006C171.085 95.938 170.843 95.84 170.639 95.712C170.439 95.584 170.283 95.428 170.171 95.244C170.063 95.06 170.009 94.854 170.009 94.626C170.009 94.538 170.017 94.444 170.033 94.344C170.049 94.244 170.065 94.164 170.081 94.104H170.831C170.815 94.152 170.801 94.214 170.789 94.29C170.781 94.366 170.777 94.432 170.777 94.488C170.777 94.792 170.917 95.028 171.197 95.196C171.481 95.36 171.885 95.442 172.409 95.442C172.761 95.442 173.097 95.4 173.417 95.316C173.741 95.228 174.005 95.09 174.209 94.902C174.417 94.714 174.521 94.466 174.521 94.158C174.521 93.85 174.387 93.624 174.119 93.48C173.851 93.332 173.431 93.21 172.859 93.114C172.463 93.05 172.107 92.958 171.791 92.838C171.475 92.714 171.225 92.548 171.041 92.34C170.857 92.132 170.765 91.866 170.765 91.542C170.765 91.206 170.843 90.914 170.999 90.666C171.159 90.414 171.373 90.204 171.641 90.036C171.909 89.868 172.211 89.744 172.547 89.664C172.887 89.58 173.235 89.538 173.591 89.538C173.991 89.538 174.357 89.596 174.689 89.712C175.021 89.828 175.285 89.998 175.481 90.222C175.681 90.442 175.781 90.71 175.781 91.026C175.781 91.126 175.775 91.218 175.763 91.302C175.751 91.386 175.737 91.46 175.721 91.524H174.977C174.993 91.468 175.005 91.414 175.013 91.362C175.021 91.306 175.025 91.24 175.025 91.164C175.025 90.936 174.955 90.752 174.815 90.612C174.675 90.472 174.491 90.37 174.263 90.306C174.039 90.238 173.791 90.204 173.519 90.204C173.183 90.204 172.861 90.248 172.553 90.336C172.249 90.424 171.999 90.558 171.803 90.738C171.607 90.918 171.509 91.146 171.509 91.422C171.509 91.742 171.655 91.976 171.947 92.124C172.239 92.268 172.639 92.39 173.147 92.49C173.455 92.55 173.739 92.62 173.999 92.7C174.259 92.776 174.483 92.874 174.671 92.994C174.859 93.11 175.005 93.254 175.109 93.426C175.213 93.594 175.265 93.8 175.265 94.044C175.265 94.408 175.183 94.722 175.019 94.986C174.855 95.246 174.633 95.46 174.353 95.628C174.073 95.792 173.757 95.914 173.405 95.994C173.053 96.074 172.689 96.114 172.313 96.114ZM176.718 96L178.068 89.628H178.806L177.456 96H176.718ZM178.866 88.02C178.718 88.02 178.59 87.978 178.482 87.894C178.378 87.81 178.326 87.696 178.326 87.552C178.326 87.444 178.352 87.352 178.404 87.276C178.46 87.196 178.534 87.136 178.626 87.096C178.718 87.052 178.816 87.03 178.92 87.03C179.068 87.03 179.194 87.072 179.298 87.156C179.402 87.24 179.454 87.352 179.454 87.492C179.454 87.6 179.426 87.694 179.37 87.774C179.318 87.85 179.246 87.91 179.154 87.954C179.066 87.998 178.97 88.02 178.866 88.02ZM182.541 96.114C181.997 96.114 181.529 96.006 181.137 95.79C180.745 95.57 180.443 95.266 180.231 94.878C180.019 94.49 179.913 94.038 179.913 93.522C179.913 92.962 180.009 92.44 180.201 91.956C180.397 91.472 180.667 91.05 181.011 90.69C181.359 90.326 181.765 90.044 182.229 89.844C182.697 89.64 183.203 89.538 183.747 89.538C184.295 89.538 184.763 89.65 185.151 89.874C185.543 90.098 185.843 90.404 186.051 90.792C186.259 91.176 186.363 91.612 186.363 92.1C186.363 92.692 186.263 93.234 186.063 93.726C185.867 94.214 185.595 94.636 185.247 94.992C184.899 95.348 184.493 95.624 184.029 95.82C183.569 96.016 183.073 96.114 182.541 96.114ZM182.595 95.448C183.159 95.448 183.667 95.312 184.119 95.04C184.575 94.764 184.937 94.382 185.205 93.894C185.473 93.402 185.607 92.83 185.607 92.178C185.607 91.778 185.533 91.432 185.385 91.14C185.237 90.844 185.021 90.614 184.737 90.45C184.457 90.286 184.111 90.204 183.699 90.204C183.259 90.204 182.853 90.288 182.481 90.456C182.113 90.62 181.793 90.85 181.521 91.146C181.253 91.442 181.043 91.786 180.891 92.178C180.743 92.57 180.669 92.994 180.669 93.45C180.669 94.066 180.835 94.554 181.167 94.914C181.503 95.27 181.979 95.448 182.595 95.448ZM191.994 96L192.726 92.598C192.79 92.294 192.836 92.054 192.864 91.878C192.896 91.698 192.912 91.534 192.912 91.386C192.912 91.03 192.788 90.75 192.54 90.546C192.292 90.342 191.926 90.24 191.442 90.24C191.086 90.24 190.73 90.33 190.374 90.51C190.022 90.686 189.716 90.926 189.456 91.23C189.196 91.534 189.026 91.876 188.946 92.256L188.502 92.088C188.582 91.72 188.728 91.382 188.94 91.074C189.156 90.762 189.414 90.492 189.714 90.264C190.018 90.036 190.342 89.858 190.686 89.73C191.034 89.602 191.38 89.538 191.724 89.538C192.328 89.538 192.808 89.678 193.164 89.958C193.52 90.238 193.698 90.636 193.698 91.152C193.698 91.348 193.676 91.57 193.632 91.818C193.588 92.062 193.53 92.342 193.458 92.658L192.732 96H191.994ZM187.41 96L188.766 89.628H189.51L188.154 96H187.41Z" fill="#0F0700"/>
</svg>
