<svg width="148" height="195" viewBox="0 0 148 195" fill="none" xmlns="http://www.w3.org/2000/svg">
<path d="M147.625 121.875C147.625 158.186 116.106 195 74.7968 195C33.4877 195 0 162.249 0 125.937C0 89.6263 39.3667 50.7811 74.7968 16.2498C100.385 48.7499 147.625 85.5638 147.625 121.875Z" fill="url(#paint0_linear_26_3228)"/>
<path d="M66.9234 52.8125C66.9234 65.1527 57.4355 89.3751 43.3034 89.3751C29.1713 89.3751 19.6833 65.1527 19.6833 52.8125C19.6833 40.4724 31.4934 12.1875 43.3034 0C57.0817 14.2188 66.9234 40.4724 66.9234 52.8125Z" fill="white"/>
<path d="M49.2084 45.0567C49.2084 51.7877 53.5154 64.9999 45.2717 64.9999C37.028 64.9999 31.4933 51.7877 31.4933 45.0567C31.4933 38.3257 38.3825 22.8976 45.2717 16.2498C47.24 30.4686 49.2084 38.3257 49.2084 45.0567Z" fill="url(#paint1_linear_26_3228)"/>
<defs>
<linearGradient id="paint0_linear_26_3228" x1="73.8126" y1="16.2498" x2="73.8126" y2="195" gradientUnits="userSpaceOnUse">
<stop offset="0.611" stop-color="#FF7700"/>
<stop offset="1" stop-color="#FFE600"/>
</linearGradient>
<linearGradient id="paint1_linear_26_3228" x1="45.2717" y1="16.2498" x2="45.2717" y2="64.9999" gradientUnits="userSpaceOnUse">
<stop offset="0.85" stop-color="#FF7700"/>
<stop offset="1" stop-color="#FFE600"/>
</linearGradient>
</defs>
</svg>
