<svg width="15" height="21" viewBox="0 0 15 21" fill="none" xmlns="http://www.w3.org/2000/svg">
<path d="M12.8571 0H8.57143V4.26195C10.105 4.42714 11.5752 4.95268 12.8571 5.7939V0ZM6.42857 0H2.14286V5.7939C3.4248 4.95268 4.89501 4.42714 6.42857 4.26195V0ZM7.5 21C9.48912 21 11.3968 20.2256 12.8033 18.8472C14.2098 17.4688 15 15.5993 15 13.65C15 11.7007 14.2098 9.83116 12.8033 8.45277C11.3968 7.07437 9.48912 6.3 7.5 6.3C5.51088 6.3 3.60322 7.07437 2.1967 8.45277C0.790176 9.83116 0 11.7007 0 13.65C0 15.5993 0.790176 17.4688 2.1967 18.8472C3.60322 20.2256 5.51088 21 7.5 21ZM6.1875 12.055L7.5 9.45L8.8125 12.055L11.7461 12.4719L9.62357 14.5005L10.125 17.3638L7.5 16.0125L4.87607 17.3638L5.3775 14.5005L3.255 12.4719L6.1875 12.055Z" fill="black"/>
</svg>
