<svg width="133" height="133" viewBox="0 0 133 133" fill="none" xmlns="http://www.w3.org/2000/svg">
<g clip-path="url(#clip0_34_3456)">
<path d="M66 22L110.167 106H21.8327L66 22Z" fill="#FFDB26"/>
<path d="M60.9639 55.4166H72.0472V83.125H60.9639V55.4166ZM60.9583 88.6666H72.0416V99.75H60.9583V88.6666Z" fill="black"/>
<path d="M76.2977 23.275C74.3692 19.6452 70.6119 17.3898 66.5 17.3898C62.3881 17.3898 58.6308 19.6452 56.7023 23.2806L16.0376 100.105C15.1352 101.792 14.6882 103.685 14.7407 105.597C14.7932 107.51 15.3433 109.376 16.3368 111.011C17.316 112.653 18.7067 114.012 20.3714 114.953C22.0362 115.893 23.9175 116.384 25.8297 116.375H107.17C111.094 116.375 114.646 114.369 116.669 111.011C117.661 109.375 118.21 107.509 118.262 105.597C118.315 103.685 117.869 101.792 116.968 100.105L76.2977 23.275ZM25.8297 105.292L66.5 28.4676L107.198 105.292H25.8297Z" fill="black"/>
</g>
<defs>
<clipPath id="clip0_34_3456">
<rect width="133" height="133" fill="white"/>
</clipPath>
</defs>
</svg>
