<svg width="24" height="24" viewBox="0 0 24 24" fill="none" xmlns="http://www.w3.org/2000/svg">
<path d="M21.5121 6.11201L17.6221 10.001L14.0871 6.46501L17.9761 2.57601C16.7894 2.08819 15.485 1.96238 14.2271 2.21442C12.9691 2.46646 11.8138 3.08508 10.9068 3.99238C9.99968 4.89968 9.38133 6.05509 9.12958 7.31311C8.87784 8.57113 9.00396 9.87552 9.49205 11.062L3.21605 17.337C3.12311 17.4298 3.04937 17.54 2.99906 17.6613C2.94875 17.7826 2.92285 17.9127 2.92285 18.044C2.92285 18.1753 2.94875 18.3054 2.99906 18.4267C3.04937 18.548 3.12311 18.6582 3.21605 18.751L5.33805 20.873C5.43084 20.966 5.54104 21.0397 5.66236 21.09C5.78367 21.1403 5.91372 21.1662 6.04505 21.1662C6.17639 21.1662 6.30643 21.1403 6.42775 21.09C6.54906 21.0397 6.65926 20.966 6.75205 20.873L13.0271 14.597C14.2137 15.0855 15.5183 15.2119 16.7766 14.9603C18.0349 14.7086 19.1906 14.0902 20.0981 13.183C21.005 12.2753 21.6231 11.1196 21.8747 9.86141C22.1263 8.6032 22.0001 7.29867 21.5121 6.11201Z" fill="black" fill-opacity="0.75"/>
</svg>
